<svg xmlns="http://www.w3.org/2000/svg" width="21" height="15" viewBox="0 0 21 15">
  <g id="dial" transform="translate(-214 -602)">
    <g id="Rectangle_72" data-name="Rectangle 72" transform="translate(214 602)" fill="#fff" stroke="#707070" stroke-width="1" opacity="0">
      <rect width="21" height="15" stroke="none"/>
      <rect x="0.5" y="0.5" width="20" height="14" fill="none"/>
    </g>
    <g id="dial-2" data-name="dial" transform="translate(214.51 599.497)" fill="none">
      <path d="M15.643,13.495a9.647,9.647,0,0,0-2.015-1.348c-.6-.29-.825-.284-1.253.024-.356.257-.586.5-1,.407a5.939,5.939,0,0,1-2-1.48,5.9,5.9,0,0,1-1.48-2c-.087-.413.152-.64.407-1,.308-.428.317-.649.024-1.253A9.456,9.456,0,0,0,6.982,4.833c-.44-.44-.538-.344-.78-.257a4.44,4.44,0,0,0-.715.38,2.156,2.156,0,0,0-.858.906c-.17.368-.368,1.052.637,2.84a15.849,15.849,0,0,0,2.787,3.716h0l0,0,0,0h0a15.911,15.911,0,0,0,3.716,2.787c1.788,1,2.473.807,2.84.637a2.119,2.119,0,0,0,.906-.858,4.44,4.44,0,0,0,.38-.715C15.987,14.033,16.086,13.934,15.643,13.495Z" stroke="none"/>
      <path d="M 13.98227691650391 15.98657321929932 C 14.27484130859375 15.98657703399658 14.46950149536133 15.91507053375244 14.61474704742432 15.8477611541748 C 14.98248672485352 15.67734146118164 15.22765731811523 15.4321813583374 15.52065658569336 14.98968124389648 C 15.7568473815918 14.63390159606934 15.90035724639893 14.27512168884277 15.90035724639893 14.27512168884277 C 15.98706722259521 14.03295135498047 16.08572769165039 13.93428134918213 15.64323711395264 13.49478149414063 C 15.20373725891113 13.05528163909912 14.14833736419678 12.39453125 13.62810707092285 12.14637088775635 C 13.33368873596191 12.00499534606934 13.13020896911621 11.93395614624023 12.94945240020752 11.93395614624023 C 12.7594165802002 11.93395614624023 12.59449672698975 12.01246356964111 12.37537670135498 12.17029094696045 C 12.07172679901123 12.38973999023438 11.85949802398682 12.59611415863037 11.54920291900635 12.59613227844238 C 11.49592304229736 12.59613609313965 11.43979167938232 12.59005451202393 11.37976741790771 12.57691097259521 C 10.97016716003418 12.49020099639893 10.162917137146 11.87729167938232 9.379587173461914 11.09695148468018 C 8.596246719360352 10.31362152099609 7.986327171325684 9.50637149810791 7.899627208709717 9.096771240234375 C 7.812917232513428 8.684171676635742 8.052106857299805 8.456951141357422 8.30623722076416 8.101161003112793 C 8.614187240600586 7.67362117767334 8.623157501220703 7.452371120452881 8.330157279968262 6.84843111038208 C 8.08200740814209 6.325211048126221 7.424247264862061 5.272801399230957 6.981757164001465 4.833301067352295 C 6.725090026855469 4.576634407043457 6.584655284881592 4.502482891082764 6.464006423950195 4.502482891082764 C 6.378058910369873 4.502482891082764 6.302157878875732 4.540102481842041 6.201406955718994 4.576171398162842 C 6.201406955718994 4.576171398162842 5.842637062072754 4.719681262969971 5.486846923828125 4.955881118774414 C 5.047347068786621 5.248881340026855 4.802176952362061 5.494041442871094 4.628777027130127 5.861791133880615 C 4.458356857299805 6.229541301727295 4.261026859283447 6.914201259613037 5.265596866607666 8.70211124420166 C 6.075837135314941 10.14619159698486 6.871127128601074 11.2404613494873 8.052106857299805 12.4184513092041 C 8.052106857299805 12.4184513092041 8.052106857299805 12.4184513092041 8.055096626281738 12.42144107818604 C 8.055096626281738 12.42144107818604 8.055096626281738 12.42144107818604 8.058087348937988 12.42443084716797 C 9.239056587219238 13.60540103912354 10.33034706115723 14.40069103240967 11.77442741394043 15.21093082427979 C 12.85618114471436 15.81874370574951 13.53409290313721 15.9865665435791 13.98227691650391 15.98657321929932 M 13.98233699798584 16.98657035827637 C 13.24944686889648 16.98657035827637 12.36699676513672 16.69092178344727 11.28457736968994 16.08274078369141 C 9.694987297058105 15.19085121154785 8.555187225341797 14.3357515335083 7.350976943969727 13.13154125213623 L 8.052106857299805 12.4184513092041 L 7.345897197723389 13.12645149230957 C 6.144917011260986 11.92852115631104 5.289546966552734 10.78846168518066 4.393486976623535 9.191431045532227 C 3.480237007141113 7.566051483154297 3.272886991500854 6.409311294555664 3.721467018127441 5.441331386566162 L 3.722867012023926 5.438311100006104 L 3.724277019500732 5.435311317443848 C 4.030237197875977 4.786431312561035 4.485617160797119 4.421521186828613 4.932147026062012 4.123831272125244 C 5.363087177276611 3.837741374969482 5.783486843109131 3.666301250457764 5.830007076263428 3.647701263427734 L 5.847056865692139 3.640881299972534 L 5.864346981048584 3.63469123840332 C 5.87887716293335 3.629481315612793 5.892647266387939 3.624171257019043 5.90589714050293 3.619121313095093 C 6.020407199859619 3.575501203536987 6.212067127227783 3.50248122215271 6.464006900787354 3.50248122215271 C 6.993727207183838 3.50248122215271 7.380446910858154 3.817771196365356 7.688867092132568 4.126191139221191 C 8.242907524108887 4.676490783691406 8.951836585998535 5.827355861663818 9.231576919555664 6.415468692779541 C 9.609228134155273 7.195176124572754 9.721424102783203 7.847382068634033 9.117667198181152 8.68562126159668 C 9.07768726348877 8.74160099029541 9.035826683044434 8.797671318054199 8.995427131652832 8.851661682128906 C 8.970485687255859 8.884995460510254 8.94098949432373 8.924412727355957 8.915491104125977 8.959868431091309 C 9.04054069519043 9.192238807678223 9.405983924865723 9.709146499633789 10.0866870880127 10.38984107971191 C 10.77034664154053 11.07088470458984 11.28689575195313 11.43651103973389 11.51814746856689 11.56140804290771 C 11.55451583862305 11.53510189056396 11.59499359130859 11.50461673736572 11.62920665740967 11.47885131835938 C 11.68051719665527 11.44020080566406 11.73368740081787 11.40022087097168 11.78962707519531 11.35980129241943 C 12.06557750701904 11.16103172302246 12.44546699523926 10.93395137786865 12.94944667816162 10.93395137786865 C 13.35719680786133 10.93395137786865 13.72464656829834 11.08341121673584 14.06098747253418 11.24492168426514 C 14.65573692321777 11.52862167358398 15.81641674041748 12.25375080108643 16.3503475189209 12.78767108917236 C 16.96199798583984 13.39519119262695 17.10966682434082 13.91232109069824 16.85762786865234 14.57021141052246 C 16.85250663757324 14.58359146118164 16.84709739685059 14.59750080108643 16.84182739257813 14.61222171783447 L 16.83564758300781 14.62948131561279 L 16.82883644104004 14.64651107788086 C 16.81022644042969 14.69303131103516 16.63878631591797 15.11345100402832 16.35378646850586 15.54276084899902 C 16.0557861328125 15.99280166625977 15.6892671585083 16.45196151733398 15.03521728515625 16.75507164001465 C 14.82075691223145 16.85445213317871 14.47828674316406 16.98657035827637 13.98233699798584 16.98657035827637 Z" stroke="none" fill="#262626"/>
    </g>
  </g>
</svg>
