<svg xmlns="http://www.w3.org/2000/svg" width="135" height="35" viewBox="0 0 135 35">
  <g id="facep" transform="translate(-156 -217)">
    <path id="Subtraction_16" data-name="Subtraction 16" d="M-1762.5,885h-100a17.387,17.387,0,0,1-12.375-5.125A17.385,17.385,0,0,1-1880,867.5a17.386,17.386,0,0,1,5.126-12.375A17.386,17.386,0,0,1-1862.5,850h100a17.385,17.385,0,0,1,12.374,5.126A17.387,17.387,0,0,1-1745,867.5a17.385,17.385,0,0,1-5.125,12.374A17.385,17.385,0,0,1-1762.5,885Zm-102.937-16.392v9.806h4.386v-9.806h3.27l.623-4.056h-3.892v-2.632a2.023,2.023,0,0,1,2.287-2.192H-1857v-3.454a21.89,21.89,0,0,0-3.141-.274c-3.319,0-5.3,2.041-5.3,5.459v3.092H-1869v4.056Zm89.992-1.088c.649,0,.977.3.977.9l-1.493.2c-1.258.164-1.9.786-1.9,1.848a1.63,1.63,0,0,0,.46,1.211,1.718,1.718,0,0,0,1.259.454,1.8,1.8,0,0,0,1.638-.924h.022V872h1.607v-3.288a2.083,2.083,0,0,0-2.353-2.347,5.158,5.158,0,0,0-1.12.139,4.29,4.29,0,0,0-.969.322v1.279A3.354,3.354,0,0,1-1775.445,867.52Zm-22.618,0c.649,0,.977.3.977.9l-1.493.2c-1.258.164-1.9.786-1.9,1.848a1.633,1.633,0,0,0,.459,1.211,1.718,1.718,0,0,0,1.259.454,1.8,1.8,0,0,0,1.639-.924h.021V872h1.607v-3.288a2.083,2.083,0,0,0-2.353-2.347,5.142,5.142,0,0,0-1.12.139,4.283,4.283,0,0,0-.97.322v1.279A3.353,3.353,0,0,1-1798.063,867.52Zm-17.064,0c.649,0,.977.3.977.9l-1.493.2c-1.258.164-1.9.786-1.9,1.848a1.632,1.632,0,0,0,.459,1.211,1.718,1.718,0,0,0,1.259.454,1.8,1.8,0,0,0,1.639-.924h.021V872h1.606v-3.288a2.083,2.083,0,0,0-2.353-2.347,5.142,5.142,0,0,0-1.12.139,4.282,4.282,0,0,0-.97.322v1.279A3.354,3.354,0,0,1-1815.127,867.52Zm-21.264,0c.649,0,.978.3.978.9l-1.494.2c-1.258.164-1.9.786-1.9,1.848a1.632,1.632,0,0,0,.459,1.211,1.719,1.719,0,0,0,1.26.454,1.8,1.8,0,0,0,1.638-.924h.022V872h1.606v-3.288a2.083,2.083,0,0,0-2.353-2.347,5.142,5.142,0,0,0-1.12.139,4.253,4.253,0,0,0-.969.322v1.279A3.347,3.347,0,0,1-1836.392,867.52Zm71.517-1.021V872h1.7v-5.5Zm-3.948,1.165c.606,0,.913.43.913,1.279V872h1.692v-3.368c0-1.5-.614-2.267-1.826-2.267a1.954,1.954,0,0,0-1.768,1h-.021v-.87h-1.7V872h1.7v-3.137a1.3,1.3,0,0,1,.285-.859A.91.91,0,0,1-1768.823,867.665Zm-12.542,0c.585,0,.881.4.881,1.2V872h1.692v-3.422c0-1.468-.6-2.213-1.794-2.213a2.042,2.042,0,0,0-1.848,1.026,1.591,1.591,0,0,0-1.6-1.026,2.043,2.043,0,0,0-1.039.277,2.033,2.033,0,0,0-.738.716h-.022V866.5h-1.7V872h1.7v-3.056a1.527,1.527,0,0,1,.26-.935.834.834,0,0,1,.7-.344c.574,0,.865.392.865,1.166V872h1.7v-3.078a1.488,1.488,0,0,1,.263-.9A.814.814,0,0,1-1781.365,867.665Zm-10.076,0c.584,0,.88.407.88,1.209V872h1.692v-3.379c0-1.5-.629-2.256-1.869-2.256a1.936,1.936,0,0,0-1.692.951h-.021v-3.46h-1.7V872h1.7v-3.137a1.312,1.312,0,0,1,.279-.859A.907.907,0,0,1-1791.44,867.665Zm-16.57-3.367V872h2.728a4.15,4.15,0,0,0,2.984-1.075,3.815,3.815,0,0,0,1.12-2.874c0-2.491-1.381-3.754-4.1-3.754Zm-12.208,3.453-2.761,3.545v.7h4.937v-1.252h-2.638l2.616-3.411V866.5h-4.64v1.252Zm-6.1-.086c.585,0,.881.4.881,1.2V872h1.692v-3.422c0-1.468-.6-2.213-1.795-2.213a2.041,2.041,0,0,0-1.847,1.026,1.591,1.591,0,0,0-1.6-1.026,2.039,2.039,0,0,0-1.04.277,2.031,2.031,0,0,0-.738.716h-.022V866.5h-1.7V872h1.7v-3.056a1.522,1.522,0,0,1,.26-.935.834.834,0,0,1,.7-.344c.574,0,.865.392.865,1.166V872h1.7v-3.078a1.488,1.488,0,0,1,.263-.9A.814.814,0,0,1-1826.315,867.665Zm-18.606,1.2h3.191V872h1.741v-7.7h-1.741v3.072h-3.191V864.3h-1.734V872h1.734v-3.136Zm80.906-4.979a1.029,1.029,0,0,0-.7.242.8.8,0,0,0-.275.623.825.825,0,0,0,.275.625,1,1,0,0,0,.7.256,1.012,1.012,0,0,0,.706-.247.822.822,0,0,0,.272-.634.8.8,0,0,0-.272-.623A1.026,1.026,0,0,0-1764.015,863.884Zm-11.532,7.047a.778.778,0,0,1-.545-.185.619.619,0,0,1-.2-.475c0-.424.278-.675.827-.747l1-.129v.371a1.2,1.2,0,0,1-.3.835A1.009,1.009,0,0,1-1775.547,870.931Zm-22.618,0a.778.778,0,0,1-.545-.185.619.619,0,0,1-.2-.475c0-.424.278-.675.827-.747l1-.129v.371a1.2,1.2,0,0,1-.3.835A1.009,1.009,0,0,1-1798.165,870.931Zm-17.064,0a.777.777,0,0,1-.545-.185.619.619,0,0,1-.2-.475c0-.424.278-.675.827-.747l1-.129v.371a1.2,1.2,0,0,1-.3.835A1.009,1.009,0,0,1-1815.229,870.931Zm-21.264,0a.778.778,0,0,1-.545-.185.62.62,0,0,1-.2-.475c0-.424.279-.675.828-.747l1-.129v.371a1.2,1.2,0,0,1-.3.835A1.006,1.006,0,0,1-1836.493,870.931Zm31.077-.338h-.859V865.71h.849a2.441,2.441,0,0,1,1.786.631,2.343,2.343,0,0,1,.636,1.732,2.579,2.579,0,0,1-.642,1.842A2.335,2.335,0,0,1-1805.416,870.593Z" transform="translate(2036 -633)" fill="#262626"/>
  </g>
</svg>
