<svg xmlns="http://www.w3.org/2000/svg" width="135" height="35" viewBox="0 0 135 35">
  <g id="instapr" transform="translate(-156 -169)">
    <path id="Subtraction_17" data-name="Subtraction 17" d="M-1762.5,885h-100a17.387,17.387,0,0,1-12.375-5.125A17.385,17.385,0,0,1-1880,867.5a17.386,17.386,0,0,1,5.126-12.375A17.386,17.386,0,0,1-1862.5,850h100a17.385,17.385,0,0,1,12.374,5.126A17.387,17.387,0,0,1-1745,867.5a17.385,17.385,0,0,1-5.125,12.374A17.385,17.385,0,0,1-1762.5,885Zm-100.192-28c-1.835,0-3.465.028-4.252.072a6.087,6.087,0,0,0-4.318,1.661,6.087,6.087,0,0,0-1.665,4.319c-.1,1.708-.1,6.795,0,8.5a6.05,6.05,0,0,0,1.665,4.318,6.112,6.112,0,0,0,4.318,1.665c.788.045,2.417.073,4.252.073s3.464-.028,4.252-.073a6.054,6.054,0,0,0,4.319-1.665,6.1,6.1,0,0,0,1.665-4.318c.1-1.708.1-6.792,0-8.5a6.06,6.06,0,0,0-1.665-4.319,6.1,6.1,0,0,0-4.319-1.665C-1859.227,857.028-1860.856,857-1862.691,857Zm85.013,10.52c.649,0,.977.3.977.9l-1.493.2c-1.258.164-1.9.786-1.9,1.848a1.633,1.633,0,0,0,.459,1.211,1.722,1.722,0,0,0,1.26.454,1.8,1.8,0,0,0,1.638-.923h.022V872h1.606v-3.287a2.083,2.083,0,0,0-2.353-2.347,5.151,5.151,0,0,0-1.12.139,4.248,4.248,0,0,0-.969.322v1.279A3.348,3.348,0,0,1-1777.678,867.521Zm-22.618,0c.649,0,.977.3.977.9l-1.493.2c-1.258.164-1.9.786-1.9,1.848a1.631,1.631,0,0,0,.46,1.211,1.721,1.721,0,0,0,1.259.454,1.8,1.8,0,0,0,1.638-.923h.022V872h1.607v-3.287a2.083,2.083,0,0,0-2.353-2.347,5.152,5.152,0,0,0-1.12.139,4.282,4.282,0,0,0-.969.322v1.279A3.353,3.353,0,0,1-1800.3,867.521Zm-6.633-1.155a2.272,2.272,0,0,0-1.816.822,3.3,3.3,0,0,0-.692,2.186,3.024,3.024,0,0,0,.628,2.033,2.093,2.093,0,0,0,1.66.727,1.912,1.912,0,0,0,1.7-.891h.022V872h1.7v-8.142h-1.7v3.271h-.022A1.551,1.551,0,0,0-1806.929,866.366Zm-6.1,1.155c.649,0,.977.3.977.9l-1.493.2c-1.258.164-1.9.786-1.9,1.848a1.634,1.634,0,0,0,.46,1.211,1.721,1.721,0,0,0,1.259.454,1.8,1.8,0,0,0,1.638-.923h.021V872h1.607v-3.287a2.083,2.083,0,0,0-2.353-2.347,5.152,5.152,0,0,0-1.12.139,4.279,4.279,0,0,0-.969.322v1.279A3.353,3.353,0,0,1-1813.026,867.521Zm-21.264,0c.649,0,.977.3.977.9l-1.493.2c-1.258.164-1.9.786-1.9,1.848a1.634,1.634,0,0,0,.459,1.211,1.721,1.721,0,0,0,1.259.454,1.8,1.8,0,0,0,1.639-.923h.021V872h1.607v-3.287a2.083,2.083,0,0,0-2.353-2.347,5.137,5.137,0,0,0-1.12.139,4.274,4.274,0,0,0-.97.322v1.279A3.353,3.353,0,0,1-1834.29,867.521Zm72.37-1.482V872h1.692v-7.874h-1.026a7.051,7.051,0,0,1-1.057.661,7.057,7.057,0,0,1-1.246.494v1.429a3.265,3.265,0,0,0,.456-.089,3.45,3.45,0,0,0,.446-.15,3.26,3.26,0,0,0,.4-.2,1.976,1.976,0,0,0,.329-.232Zm-5.188.462V872h1.7v-5.5Zm-3.947,1.165c.606,0,.913.43.913,1.278V872h1.691v-3.368c0-1.5-.614-2.266-1.826-2.266a1.953,1.953,0,0,0-1.767,1h-.022v-.87h-1.7V872h1.7v-3.136a1.3,1.3,0,0,1,.284-.859A.91.91,0,0,1-1771.056,867.666Zm-12.542,0c.585,0,.881.4.881,1.2V872h1.692v-3.421c0-1.468-.6-2.213-1.795-2.213a2.044,2.044,0,0,0-1.848,1.026,1.589,1.589,0,0,0-1.595-1.026,2.038,2.038,0,0,0-1.039.276,2.043,2.043,0,0,0-.738.717h-.022V866.5h-1.7V872h1.7v-3.056a1.52,1.52,0,0,1,.26-.934.832.832,0,0,1,.7-.344c.574,0,.865.392.865,1.166V872h1.7v-3.077a1.487,1.487,0,0,1,.263-.9A.812.812,0,0,1-1783.6,867.666Zm-10.076,0c.585,0,.881.407.881,1.209V872h1.692v-3.379c0-1.5-.629-2.255-1.869-2.255a1.938,1.938,0,0,0-1.692.95h-.022v-3.459h-1.7V872h1.7v-3.136a1.312,1.312,0,0,1,.28-.859A.9.9,0,0,1-1793.674,867.666Zm-24.444.086-2.76,3.544v.7h4.936v-1.251h-2.637l2.616-3.411V866.5h-4.641v1.252Zm-6.1-.086c.585,0,.881.4.881,1.2V872h1.692v-3.421c0-1.468-.6-2.213-1.795-2.213a2.043,2.043,0,0,0-1.848,1.026,1.589,1.589,0,0,0-1.595-1.026,2.038,2.038,0,0,0-1.039.276,2.042,2.042,0,0,0-.739.717h-.021V866.5h-1.7V872h1.7v-3.056a1.52,1.52,0,0,1,.26-.934.832.832,0,0,1,.7-.344c.574,0,.865.392.865,1.166V872h1.7v-3.077a1.488,1.488,0,0,1,.263-.9A.812.812,0,0,1-1824.214,867.666Zm-15.995,0c.584,0,.88.407.88,1.209V872h1.692v-3.379c0-1.5-.629-2.255-1.869-2.255a1.938,1.938,0,0,0-1.692.95h-.021v-3.459h-1.7V872h1.7v-3.136a1.312,1.312,0,0,1,.279-.859A.905.905,0,0,1-1840.208,867.666Zm73.959-3.781a1.025,1.025,0,0,0-.7.241.8.8,0,0,0-.275.624.825.825,0,0,0,.275.626.991.991,0,0,0,.7.255,1.013,1.013,0,0,0,.707-.247.821.821,0,0,0,.271-.634.8.8,0,0,0-.271-.624A1.027,1.027,0,0,0-1766.249,863.885Zm-94.618,11.883c-.39,0-.761,0-1.088-.007h-.012c-.263,0-.512-.005-.723-.005s-.47,0-.716,0c-.3,0-.678.006-1.058.006a14.829,14.829,0,0,1-4.3-.425,3.485,3.485,0,0,1-1.96-1.959c-.461-1.164-.435-3.677-.418-5.34v-.012c0-.264.005-.513.005-.724s0-.437,0-.72c-.016-1.67-.041-4.193.418-5.356a3.484,3.484,0,0,1,1.96-1.959,14.509,14.509,0,0,1,4.253-.426c.386,0,.759,0,1.087.007h.012c.264,0,.512.005.723.005s.452,0,.711,0h.032c.314,0,.67-.006,1.039-.006a14.778,14.778,0,0,1,4.294.425,3.476,3.476,0,0,1,1.959,1.959c.462,1.163.436,3.677.419,5.341v.012c0,.264-.005.513-.005.723s0,.459.005.723v.012c.017,1.665.042,4.181-.419,5.341a3.481,3.481,0,0,1-1.959,1.959A14.513,14.513,0,0,1-1860.867,875.768Zm-1.822-13.746a5.29,5.29,0,0,0-5.284,5.285,5.29,5.29,0,0,0,5.284,5.285,5.291,5.291,0,0,0,5.285-5.285A5.291,5.291,0,0,0-1862.69,862.022Zm5.5-1.449a1.234,1.234,0,0,0-1.232,1.233,1.233,1.233,0,0,0,1.232,1.232,1.234,1.234,0,0,0,1.233-1.232A1.234,1.234,0,0,0-1857.189,860.573Zm79.408,10.359a.776.776,0,0,1-.544-.185.62.62,0,0,1-.2-.475c0-.424.278-.675.827-.747l1-.129v.371a1.2,1.2,0,0,1-.3.835A1.012,1.012,0,0,1-1777.781,870.932Zm-22.617,0a.777.777,0,0,1-.545-.185.622.622,0,0,1-.2-.475c0-.424.278-.675.827-.747l1-.129v.371a1.2,1.2,0,0,1-.3.835A1.011,1.011,0,0,1-1800.4,870.932Zm-12.73,0a.778.778,0,0,1-.545-.185.622.622,0,0,1-.2-.475c0-.424.278-.675.827-.747l1-.129v.371a1.2,1.2,0,0,1-.3.835A1.011,1.011,0,0,1-1813.127,870.932Zm-21.264,0a.777.777,0,0,1-.545-.185.622.622,0,0,1-.2-.475c0-.424.278-.675.827-.747l1-.129v.371a1.2,1.2,0,0,1-.3.835A1.011,1.011,0,0,1-1834.392,870.932Zm27.833-.1a1.022,1.022,0,0,1-.849-.391,1.8,1.8,0,0,1-.306-1.118,2.073,2.073,0,0,1,.317-1.217,1.027,1.027,0,0,1,.881-.443,1.032,1.032,0,0,1,.811.355,1.307,1.307,0,0,1,.311.892v.413a1.733,1.733,0,0,1-.325,1.1A1.024,1.024,0,0,1-1806.559,870.835Zm-56.13-.093a3.439,3.439,0,0,1-3.435-3.435,3.44,3.44,0,0,1,3.435-3.436,3.44,3.44,0,0,1,3.436,3.436A3.44,3.44,0,0,1-1862.69,870.742Z" transform="translate(2036 -681)" fill="#262626"/>
  </g>
</svg>
