<svg xmlns="http://www.w3.org/2000/svg" width="22" height="22" viewBox="0 0 22 22">
  <g id="int" transform="translate(0 -0.152)">
    <rect id="back" width="22" height="22" transform="translate(0 0.152)" fill="#fff" opacity="0"/>
    <path id="instagram" d="M6.1,5.212a3.13,3.13,0,1,0,3.13,3.13A3.125,3.125,0,0,0,6.1,5.212Zm0,5.165A2.035,2.035,0,1,1,8.136,8.342,2.039,2.039,0,0,1,6.1,10.376Zm3.988-5.293a.73.73,0,1,1-.73-.73A.728.728,0,0,1,10.089,5.084Zm2.073.741a3.613,3.613,0,0,0-.986-2.558,3.637,3.637,0,0,0-2.558-.986c-1.008-.057-4.029-.057-5.037,0a3.631,3.631,0,0,0-2.558.983A3.625,3.625,0,0,0,.038,5.822C-.02,6.83-.02,9.851.038,10.858a3.613,3.613,0,0,0,.986,2.558,3.641,3.641,0,0,0,2.558.986c1.008.057,4.029.057,5.037,0a3.613,3.613,0,0,0,2.558-.986,3.636,3.636,0,0,0,.986-2.558c.057-1.008.057-4.026,0-5.034Zm-1.3,6.115A2.06,2.06,0,0,1,9.7,13.1a13.454,13.454,0,0,1-3.6.245A13.559,13.559,0,0,1,2.5,13.1a2.06,2.06,0,0,1-1.16-1.16,13.454,13.454,0,0,1-.245-3.6,13.559,13.559,0,0,1,.245-3.6A2.06,2.06,0,0,1,2.5,3.583a13.454,13.454,0,0,1,3.6-.245,13.559,13.559,0,0,1,3.6.245,2.06,2.06,0,0,1,1.16,1.16,13.454,13.454,0,0,1,.245,3.6A13.446,13.446,0,0,1,10.86,11.94Z" transform="translate(4.823 2.762)" fill="#262626"/>
  </g>
</svg>
