<svg id="twt" xmlns="http://www.w3.org/2000/svg" width="22" height="22" viewBox="0 0 22 22">
  <rect id="Rectangle_13" data-name="Rectangle 13" width="22" height="22" fill="#fff" opacity="0"/>
  <path id="Icon_awesome-twitter" data-name="Icon awesome-twitter" d="M13.486,6.423c.01.134.01.267.01.4A8.7,8.7,0,0,1,4.73,15.588,8.705,8.705,0,0,1,0,14.205a6.373,6.373,0,0,0,.744.038,6.169,6.169,0,0,0,3.824-1.316,3.086,3.086,0,0,1-2.88-2.136,3.885,3.885,0,0,0,.582.048,3.258,3.258,0,0,0,.811-.1A3.081,3.081,0,0,1,.61,7.711V7.673A3.1,3.1,0,0,0,2,8.064a3.085,3.085,0,0,1-.954-4.12A8.756,8.756,0,0,0,7.4,7.167a3.478,3.478,0,0,1-.076-.706,3.083,3.083,0,0,1,5.331-2.108,6.065,6.065,0,0,0,1.955-.744,3.072,3.072,0,0,1-1.354,1.7,6.176,6.176,0,0,0,1.774-.477A6.622,6.622,0,0,1,13.486,6.423Z" transform="translate(3 1.619)" fill="#262626"/>
</svg>
